<?xml version="1.0" encoding="UTF-8"?>
<!DOCTYPE svg PUBLIC "-//W3C//DTD SVG 1.1//EN" "http://www.w3.org/Graphics/SVG/1.1/DTD/svg11.dtd">
<svg xmlns="http://www.w3.org/2000/svg" version="1.1" width="558px" height="558px" style="shape-rendering:geometricPrecision; text-rendering:geometricPrecision; image-rendering:optimizeQuality; fill-rule:evenodd; clip-rule:evenodd" xmlns:xlink="http://www.w3.org/1999/xlink">
<g><path style="opacity:1" fill="black" d="M 57.5,479.5 C 86.5,479.5 115.5,479.5 144.5,479.5C 144.737,478.209 144.404,477.209 143.5,476.5C 132.813,474.984 125.979,468.984 123,458.5C 121.192,447.732 123.192,437.732 129,428.5C 146.514,399.651 166.347,372.484 188.5,347C 200.27,337.952 213.603,333.119 228.5,332.5C 231.073,332.852 233.406,332.352 235.5,331C 234.906,330.536 234.239,330.369 233.5,330.5C 212.072,324.562 195.739,312.062 184.5,293C 178.075,290.954 172.409,287.621 167.5,283C 155.081,279.253 145.581,271.753 139,260.5C 129.2,241.374 125.533,221.041 128,199.5C 134.616,161.947 149.616,128.28 173,98.5C 202.307,69.9505 237.473,57.4505 278.5,61C 286.667,64.6243 293.334,62.9576 298.5,56C 308.281,50.8802 312.614,53.7136 311.5,64.5C 361.757,71.9269 395.257,99.5936 412,147.5C 417.113,163.841 420.779,180.507 423,197.5C 424.43,213.536 422.763,229.203 418,244.5C 412.363,257.97 402.863,267.637 389.5,273.5C 388.523,283.41 385.69,292.743 381,301.5C 374.672,310.081 366.172,314.581 355.5,315C 345.857,321.655 335.523,326.988 324.5,331C 350.128,328.739 370.295,337.906 385,358.5C 399.779,384.389 413.779,410.723 427,437.5C 428.919,445.523 428.919,453.523 427,461.5C 425.92,463.996 424.586,466.33 423,468.5C 418.722,472.377 414.222,475.877 409.5,479C 436.5,479.333 463.5,479.667 490.5,480C 493.399,483.156 493.065,485.822 489.5,488C 344.833,488.667 200.167,488.667 55.5,488C 52.3539,484.085 53.0206,481.252 57.5,479.5 Z"/></g>
<g><path style="opacity:1" fill="white" d="M 300.5,65.5 C 300.707,67.6036 300.874,69.937 301,72.5C 303.8,73.1253 306.634,73.792 309.5,74.5C 308.91,75.7989 307.91,76.6322 306.5,77C 226.122,61.9341 172.955,93.1008 147,170.5C 136.962,203.617 140.129,235.284 156.5,265.5C 155.998,266.521 155.332,266.688 154.5,266C 142.905,253.903 136.739,239.403 136,222.5C 136.379,182.031 148.379,145.364 172,112.5C 193.696,86.5658 221.529,72.0658 255.5,69C 268.289,67.9904 280.956,68.8237 293.5,71.5C 297.043,70.96 299.376,68.96 300.5,65.5 Z"/></g>
<g><path style="opacity:1" fill="white" d="M 264.5,84.5 C 268.29,84.0077 268.956,84.841 266.5,87C 243.66,94.2525 222.66,104.919 203.5,119C 182.058,138.716 166.225,162.216 156,189.5C 155.39,185.764 155.723,182.097 157,178.5C 173.298,134.869 203.465,105.369 247.5,90C 253.254,88.0252 258.921,86.1919 264.5,84.5 Z"/></g>
<g><path style="opacity:1" fill="white" d="M 211.5,199.5 C 212.167,200.5 212.833,201.5 213.5,202.5C 214.496,203.665 215.829,204.332 217.5,204.5C 221.345,202.412 225.345,200.579 229.5,199C 234.843,198.854 240.176,198.854 245.5,199C 248.243,196.389 247.91,194.222 244.5,192.5C 252.167,191.833 259.833,191.167 267.5,190.5C 281.827,189.42 293.66,183.42 303,172.5C 319.729,154.718 331.562,134.051 338.5,110.5C 339.569,117.673 338.736,124.673 336,131.5C 330.714,145.411 323.381,158.078 314,169.5C 309.123,174.046 303.956,178.213 298.5,182C 294.364,185.168 294.531,187.668 299,189.5C 318.504,186.262 334.171,176.928 346,161.5C 349.172,153.825 352.338,146.158 355.5,138.5C 355.833,138.833 356.167,139.167 356.5,139.5C 351.856,151.537 350.689,163.871 353,176.5C 356.049,185.934 361.549,193.6 369.5,199.5C 370.833,205.5 370.833,211.5 369.5,217.5C 366.827,218.501 364.493,220.001 362.5,222C 358.077,219.613 354.077,216.28 350.5,212C 328.768,200.059 310.934,204.226 297,224.5C 295.005,228.318 293.505,232.318 292.5,236.5C 283.473,232.544 274.473,232.544 265.5,236.5C 255.972,213.069 238.972,204.569 214.5,211C 207.406,214.761 201.573,219.928 197,226.5C 192.793,223.812 188.293,221.812 183.5,220.5C 183.201,218.396 183.534,216.396 184.5,214.5C 194.006,210.251 203.006,205.251 211.5,199.5 Z"/></g>
<g><path style="opacity:1" fill="white" d="M 235.5,189.5 C 232.833,190.167 230.167,190.833 227.5,191.5C 222.142,192.686 217.642,195.352 214,199.5C 213.517,200.448 213.351,201.448 213.5,202.5C 212.833,201.5 212.167,200.5 211.5,199.5C 221.396,192.441 230.229,184.108 238,174.5C 244.995,162.841 251.162,150.841 256.5,138.5C 255.62,150.975 251.787,162.642 245,173.5C 242.036,177.466 238.703,181.133 235,184.5C 234.22,186.387 234.387,188.054 235.5,189.5 Z"/></g>
<g><path style="opacity:1" fill="white" d="M 235.5,189.5 C 246.14,190.375 256.806,190.709 267.5,190.5C 259.833,191.167 252.167,191.833 244.5,192.5C 238.925,191.548 233.259,191.214 227.5,191.5C 230.167,190.833 232.833,190.167 235.5,189.5 Z"/></g>
<g><path style="opacity:1" fill="black" d="M 310.5,189.5 C 321.984,188.411 332.651,190.744 342.5,196.5C 343.833,198.5 343.833,200.5 342.5,202.5C 341.554,202.987 340.554,203.32 339.5,203.5C 329.707,199.051 319.373,197.218 308.5,198C 305.614,194.374 306.281,191.541 310.5,189.5 Z"/></g>
<g><path style="opacity:1" fill="black" d="M 227.5,191.5 C 233.259,191.214 238.925,191.548 244.5,192.5C 247.91,194.222 248.243,196.389 245.5,199C 240.176,198.854 234.843,198.854 229.5,199C 225.345,200.579 221.345,202.412 217.5,204.5C 215.829,204.332 214.496,203.665 213.5,202.5C 213.351,201.448 213.517,200.448 214,199.5C 217.642,195.352 222.142,192.686 227.5,191.5 Z"/></g>
<g><path style="opacity:1" fill="black" d="M 434.5,213.5 C 439.511,213.334 444.511,213.501 449.5,214C 452.167,216 452.167,218 449.5,220C 444.5,220.667 439.5,220.667 434.5,220C 433.232,217.837 433.232,215.67 434.5,213.5 Z"/></g>
<g><path style="opacity:1" fill="black" d="M 475.5,213.5 C 481.113,212.079 483.28,214.079 482,219.5C 476.084,221.416 473.918,219.416 475.5,213.5 Z"/></g>
<g><path style="opacity:1" fill="white" d="M 321.5,214.5 C 338.493,212.241 350.326,218.908 357,234.5C 359.187,259.646 347.687,271.812 322.5,271C 306.879,265.259 299.713,254.092 301,237.5C 303.844,226.162 310.678,218.495 321.5,214.5 Z"/></g>
<g><path style="opacity:1" fill="black" d="M 100.5,217.5 C 105.511,217.334 110.511,217.501 115.5,218C 118.033,219.916 118.033,221.916 115.5,224C 110.5,224.667 105.5,224.667 100.5,224C 97.9387,221.844 97.9387,219.677 100.5,217.5 Z"/></g>
<g><path style="opacity:1" fill="white" d="M 224.5,216.5 C 243.937,216.606 254.937,226.272 257.5,245.5C 254.791,265.381 243.458,274.881 223.5,274C 205.596,267.696 198.43,255.196 202,236.5C 206.301,226.022 213.801,219.355 224.5,216.5 Z"/></g>
<g><path style="opacity:1" fill="black" d="M 76.5,218.5 C 82.4877,218.664 83.821,221.164 80.5,226C 74.4034,226.147 73.0701,223.647 76.5,218.5 Z"/></g>
<g><path style="opacity:1" fill="black" d="M 323.5,218.5 C 332.851,219.535 337.185,224.868 336.5,234.5C 330.445,233.942 329.112,236.109 332.5,241C 333.448,241.483 334.448,241.649 335.5,241.5C 335.593,251.238 330.926,256.071 321.5,256C 318.193,253.222 316.026,249.722 315,245.5C 312.172,234.49 315.006,225.49 323.5,218.5 Z"/></g>
<g><path style="opacity:1" fill="black" d="M 229.5,224.5 C 239.423,224.757 243.423,229.757 241.5,239.5C 239.693,240.395 238.36,241.728 237.5,243.5C 238.439,245.771 239.772,247.771 241.5,249.5C 240.501,257.347 236.167,260.847 228.5,260C 221.541,252.331 219.707,243.498 223,233.5C 224.675,230.015 226.842,227.015 229.5,224.5 Z"/></g>
<g><path style="opacity:1" fill="white" d="M 379.5,267.5 C 377.692,266.082 377.025,264.082 377.5,261.5C 377.334,256.489 377.501,251.489 378,246.5C 379.085,245.707 380.252,245.04 381.5,244.5C 387.02,246.922 389.186,245.256 388,239.5C 384.23,232.586 378.73,230.753 371.5,234C 370.874,234.75 370.374,235.584 370,236.5C 369.333,251.167 368.667,265.833 368,280.5C 362.66,300.175 350.16,313.008 330.5,319C 316.329,324.67 301.662,328.17 286.5,329.5C 276.815,329.578 267.148,329.245 257.5,328.5C 235.32,325.159 216.153,315.826 200,300.5C 194.418,293.337 190.418,285.337 188,276.5C 186.934,264.172 185.934,251.839 185,239.5C 180.016,234.541 174.682,234.207 169,238.5C 166.555,242.054 167.221,244.721 171,246.5C 172.86,244.799 175.027,243.799 177.5,243.5C 177.894,250.496 178.227,257.496 178.5,264.5C 178.5,266.167 178.5,267.833 178.5,269.5C 177.5,269.5 176.5,269.5 175.5,269.5C 162.16,263.492 156.66,253.159 159,238.5C 164.61,227.307 173.11,224.474 184.5,230C 187.759,231.211 190.592,233.044 193,235.5C 190.276,256.554 198.443,271.721 217.5,281C 244.866,285.39 261.033,273.89 266,246.5C 274.932,239.894 283.932,239.894 293,246.5C 297.727,271.118 312.56,281.951 337.5,279C 355.567,273.089 365.234,260.589 366.5,241.5C 366.381,237.68 365.881,234.013 365,230.5C 377.379,219.8 387.713,221.467 396,235.5C 400.598,251.612 395.098,262.279 379.5,267.5 Z"/></g>
<g><path style="opacity:1" fill="black" d="M 434.5,228.5 C 437.85,228.335 441.183,228.502 444.5,229C 446.325,230.466 446.825,232.299 446,234.5C 442.256,235.626 438.423,235.793 434.5,235C 433.232,232.837 433.232,230.67 434.5,228.5 Z"/></g>
<g><path style="opacity:1" fill="black" d="M 101.5,232.5 C 105.514,232.334 109.514,232.501 113.5,233C 114.935,235.267 114.602,237.267 112.5,239C 109.167,239.667 105.833,239.667 102.5,239C 100.316,237.102 99.9829,234.936 101.5,232.5 Z"/></g>
<g><path style="opacity:1" fill="black" d="M 275.5,265.5 C 278.518,265.335 281.518,265.502 284.5,266C 285.554,267.388 285.72,268.888 285,270.5C 281.591,271.622 278.091,271.789 274.5,271C 273.243,268.924 273.576,267.09 275.5,265.5 Z"/></g>
<g><path style="opacity:1" fill="white" d="M 376.5,276.5 C 377.5,276.5 378.5,276.5 379.5,276.5C 379.891,281.603 378.724,286.269 376,290.5C 375.283,285.78 375.45,281.114 376.5,276.5 Z"/></g>
<g><path style="opacity:1" fill="black" d="M 301.5,284.5 C 307.113,283.079 309.28,285.079 308,290.5C 295.742,303.94 280.908,307.774 263.5,302C 259.673,300.254 256.007,298.254 252.5,296C 249.113,293.998 247.613,291.165 248,287.5C 248.804,286.196 249.971,285.529 251.5,285.5C 257.02,289.428 263.02,292.595 269.5,295C 279.55,296.869 288.883,295.202 297.5,290C 298.965,288.226 300.298,286.392 301.5,284.5 Z"/></g>
<g><path style="opacity:1" fill="white" d="M 304.5,335.5 C 306.288,335.215 307.955,335.548 309.5,336.5C 312.155,339.794 313.655,343.461 314,347.5C 313.167,348.333 312.333,349.167 311.5,350C 289.167,350.667 266.833,350.667 244.5,350C 243.978,349.439 243.645,348.772 243.5,348C 244.985,344.029 246.985,340.362 249.5,337C 258.258,337.929 267.092,338.429 276,338.5C 285.79,338.888 295.29,337.888 304.5,335.5 Z"/></g>
<g><path style="opacity:1" fill="white" d="M 231.5,339.5 C 233.604,339.201 235.604,339.534 237.5,340.5C 235.816,343.612 235.15,346.946 235.5,350.5C 231.5,350.5 227.5,350.5 223.5,350.5C 223.5,347.167 223.5,343.833 223.5,340.5C 226.385,340.806 229.052,340.473 231.5,339.5 Z"/></g>
<g><path style="opacity:1" fill="white" d="M 337.5,350.5 C 332.305,350.821 327.305,350.487 322.5,349.5C 323.88,346.375 323.547,343.375 321.5,340.5C 326.385,339.198 331.218,339.198 336,340.5C 336.826,343.793 337.326,347.126 337.5,350.5 Z"/></g>
<g><path style="opacity:1" fill="white" d="M 344.5,341.5 C 352.606,342.388 359.939,345.222 366.5,350C 359.508,350.5 352.508,350.666 345.5,350.5C 345.492,347.455 345.159,344.455 344.5,341.5 Z"/></g>
<g><path style="opacity:1" fill="white" d="M 211.5,343.5 C 212.833,343.5 214.167,343.5 215.5,343.5C 215.318,345.591 215.652,347.591 216.5,349.5C 210.863,350.663 205.196,350.83 199.5,350C 203.434,347.536 207.434,345.369 211.5,343.5 Z"/></g>
<g><path style="opacity:1" fill="white" d="M 177.5,372.5 C 178.497,389.659 178.83,406.992 178.5,424.5C 170.583,417.705 161.583,412.705 151.5,409.5C 159.93,396.962 168.597,384.629 177.5,372.5 Z"/></g>
<g><path style="opacity:1" fill="white" d="M 386.5,377.5 C 392.981,389.298 398.981,401.298 404.5,413.5C 397.738,413.052 391.405,414.385 385.5,417.5C 385.171,403.99 385.504,390.656 386.5,377.5 Z"/></g>
<g><path style="opacity:1" fill="white" d="M 145.5,417.5 C 157.053,419.193 166.886,424.193 175,432.5C 175.558,435.054 174.725,437.054 172.5,438.5C 163.633,431.066 153.633,425.733 142.5,422.5C 143.763,420.971 144.763,419.305 145.5,417.5 Z"/></g>
<g><path style="opacity:1" fill="white" d="M 395.5,421.5 C 400.544,421.173 405.544,421.506 410.5,422.5C 411.167,423.833 411.833,425.167 412.5,426.5C 403.066,427.455 394.066,429.788 385.5,433.5C 384.359,431.579 384.192,429.579 385,427.5C 388.431,425.204 391.931,423.204 395.5,421.5 Z"/></g>
<g><path style="opacity:1" fill="white" d="M 137.5,431.5 C 144.204,432.012 150.538,433.845 156.5,437C 151.363,438.238 150.363,440.905 153.5,445C 161.791,446.562 170.125,447.729 178.5,448.5C 178.5,453.833 178.5,459.167 178.5,464.5C 168.828,464.334 159.161,464.5 149.5,465C 145.86,469.24 141.86,469.573 137.5,466C 130.863,460.289 128.696,453.123 131,444.5C 132.653,439.861 134.819,435.528 137.5,431.5 Z"/></g>
<g><path style="opacity:1" fill="white" d="M 405.5,435.5 C 409.555,435.176 413.555,435.509 417.5,436.5C 417.833,437.167 418.167,437.833 418.5,438.5C 407.593,439.814 396.926,442.148 386.5,445.5C 385.356,442.752 386.356,440.919 389.5,440C 394.928,438.351 400.262,436.851 405.5,435.5 Z"/></g>
<g><path style="opacity:1" fill="white" d="M 404.5,447.5 C 409.833,447.5 415.167,447.5 420.5,447.5C 421.477,453.343 419.977,458.343 416,462.5C 412.067,456.566 406.9,452.066 400.5,449C 402.058,448.79 403.391,448.29 404.5,447.5 Z"/></g>
<g><path style="opacity:1" fill="white" d="M 384.5,454.5 C 395.992,453.741 404.325,458.408 409.5,468.5C 409.167,468.833 408.833,469.167 408.5,469.5C 406.549,467.378 404.215,465.878 401.5,465C 395.843,464.501 390.176,464.334 384.5,464.5C 384.5,461.167 384.5,457.833 384.5,454.5 Z"/></g>
<g><path style="opacity:1" fill="white" d="M 153.5,473.5 C 235.501,473.333 317.501,473.5 399.5,474C 401.527,475.396 401.86,477.062 400.5,479C 318.167,479.667 235.833,479.667 153.5,479C 152.248,477.172 152.248,475.339 153.5,473.5 Z"/></g>
</svg>
